<?xml version="1.0" standalone="no"?>
<!DOCTYPE svg PUBLIC "-//W3C//DTD SVG 20010904//EN"
 "http://www.w3.org/TR/2001/REC-SVG-20010904/DTD/svg10.dtd">
<svg version="1.0" xmlns="http://www.w3.org/2000/svg"
 width="295.000000pt" height="304.000000pt" viewBox="0 0 295.000000 304.000000"
 preserveAspectRatio="xMidYMid meet">

<g transform="translate(0.000000,304.000000) scale(0.100000,-0.100000)"
fill="#000000" stroke="none">
<path d="M1271 2359 c-143 -24 -314 -102 -434 -197 -126 -101 -249 -292 -297
-462 -30 -103 -37 -279 -17 -385 31 -163 131 -357 236 -459 38 -37 39 -41 34
-86 -6 -55 11 -94 59 -135 48 -41 142 -82 230 -99 102 -21 144 -21 152 1 11
27 -14 39 -108 52 -147 20 -249 69 -280 136 -21 44 -14 56 17 27 61 -57 227
-94 327 -73 105 22 148 67 136 141 -7 40 -7 37 -2 150 2 47 1 91 -3 98 -4 8
-3 31 2 52 9 31 7 43 -6 64 -17 25 -21 26 -120 26 -69 1 -118 6 -152 18 -58
20 -51 -3 -84 267 -12 94 -24 185 -27 204 -5 31 -4 33 18 27 142 -41 178 -47
303 -47 124 0 244 16 309 40 16 7 30 10 32 8 3 -2 -21 -171 -51 -376 -30 -205
-55 -379 -55 -386 0 -20 59 -25 64 -6 3 9 19 115 37 236 17 121 32 221 34 223
1 1 19 -5 41 -14 90 -37 219 2 311 95 188 192 129 531 -114 655 -158 80 -343
47 -474 -83 -69 -70 -123 -173 -123 -240 -1 -46 -1 -46 36 -49 l36 -3 12 55
c23 112 124 225 234 262 70 24 170 15 229 -19 97 -57 151 -150 151 -263 0 -60
-5 -81 -32 -137 -20 -40 -50 -81 -78 -106 -49 -43 -136 -81 -184 -81 -33 0
-34 4 -23 85 5 42 8 46 19 30 16 -22 34 -11 34 21 0 16 8 27 23 33 33 13 58
45 59 78 2 57 -11 74 -78 104 -53 24 -64 33 -64 54 0 29 32 49 65 41 33 -8 44
14 17 32 -12 8 -22 21 -22 28 0 8 -7 14 -15 14 -8 0 -15 -7 -15 -15 0 -8 -4
-15 -9 -15 -5 0 -23 -12 -40 -26 -40 -34 -42 -77 -4 -116 l26 -28 -47 -20
c-175 -78 -528 -74 -653 8 -68 43 31 116 194 143 37 6 77 12 88 14 18 4 51 62
40 73 -8 8 -176 -19 -240 -39 -73 -22 -143 -71 -164 -113 -11 -24 -10 -53 9
-205 12 -97 28 -216 36 -266 21 -132 20 -135 -16 -100 -36 35 -46 74 -27 112
29 58 -19 76 -53 21 -18 -30 -20 -51 -20 -235 0 -113 -4 -203 -9 -203 -13 0
-65 85 -99 160 -48 105 -65 192 -64 315 1 298 159 558 422 694 125 65 196 83
354 89 129 4 139 3 132 -13 -5 -13 -2 -16 9 -11 9 3 46 11 83 16 234 38 476
-136 511 -366 5 -33 20 -86 34 -119 56 -132 71 -306 41 -453 -34 -164 -120
-310 -262 -442 -52 -50 -82 -85 -79 -93 3 -8 18 -24 34 -35 l29 -21 76 64
c139 117 252 295 300 472 30 111 29 315 -1 428 -45 168 -190 412 -295 496 -32
26 -81 57 -110 68 -28 11 -91 35 -141 55 -155 60 -332 80 -484 55z m453 -581
c21 -30 20 -44 -4 -68 -42 -42 -59 -19 -44 59 8 36 27 40 48 9z m303 -113
c-26 -76 -97 -161 -167 -200 -8 -4 13 17 47 49 58 54 123 155 123 194 0 9 3
13 6 9 3 -3 -1 -27 -9 -52z m-1072 -460 c77 -34 152 -49 248 -49 77 1 87 -1
87 -17 0 -43 -109 -68 -216 -50 -138 24 -221 82 -231 160 l-6 42 34 -32 c19
-18 57 -42 84 -54z m16 -147 c65 -25 224 -36 283 -19 48 13 54 9 33 -23 -24
-36 -77 -49 -176 -43 -125 7 -209 43 -254 107 -29 42 -20 53 22 25 21 -14 63
-35 92 -47z m-14 -109 c69 -26 242 -38 294 -20 18 6 34 9 37 7 12 -12 -13 -46
-45 -61 -53 -25 -218 -16 -291 15 -57 25 -112 79 -112 111 0 20 1 20 30 -4 16
-14 56 -35 87 -48z m5 -121 c86 -26 209 -33 276 -15 29 8 55 10 58 5 12 -19
-53 -66 -101 -73 -64 -10 -179 0 -237 20 -58 20 -115 71 -124 109 l-7 29 36
-27 c20 -15 65 -37 99 -48z"/>
</g>
</svg>
